<svg width="191" height="45" viewBox="0 0 191 45" fill="none" xmlns="http://www.w3.org/2000/svg">
<path d="M11.1651 30.039L15.9994 16.9481L20.3158 30.039H11.1651ZM30.9629 44.2403L15.9994 0L0 44.2403H5.9854L8.9781 36H21.9848L24.9775 44.2403H30.9629Z" fill="#D81D99"/>
<path d="M33.9723 44.2403H39.5548V2.57143H33.9723V44.2403Z" fill="#D81D99"/>
<path d="M50.3494 16.7727H44.8244V31.9091C44.8244 40.6169 48.7379 44.9416 56.7952 44.9416C61.1691 44.9416 64.3345 43.6558 66.6366 40.6169C68.6509 37.987 68.766 35.2987 68.766 31.9091V16.7727H63.241V31.7922C63.241 36.8182 60.9389 39.4481 56.7376 39.4481C52.5939 39.4481 50.3494 36.8182 50.3494 31.7922V16.7727Z" fill="#D81D99"/>
<path d="M74.304 44.2403H79.7714V28.2857C79.7714 24.1948 82.1886 22.0325 86.6201 22.0325C86.8503 22.0325 87.0805 22.0325 87.3107 22.0325V16.4221C87.023 16.4221 86.7352 16.4221 86.505 16.4221C79.1384 16.4221 74.304 21.039 74.304 28.3442V44.2403Z" fill="#D81D99"/>
<path d="M103.162 21.4481C107.997 21.4481 111.737 25.3052 111.737 30.5649C111.737 35.8831 108.169 39.4481 102.874 39.4481C97.8099 39.4481 94.2417 35.8831 94.2417 30.8571C94.2417 25.2468 98.2128 21.4481 103.162 21.4481ZM114.96 37.8701L117.09 44.2987H122.845L117.608 28.4026C116.572 25.1883 115.593 22.3247 113.291 19.987C110.644 17.3571 107.364 16.013 103.335 16.013C94.8172 16.013 88.6016 22.4416 88.6016 30.5065C88.6016 38.9221 94.4719 45 102.874 45C108.227 45 112.428 42.5455 114.96 37.8701Z" fill="#D81D99"/>
<path d="M124.693 44.2403H130.161V31.5C136.952 31.6169 140.405 35.4156 140.405 42.9545C140.405 43.3636 140.348 43.7727 140.348 44.2403H145.873C145.873 43.8896 145.873 43.5974 145.873 43.2468C145.873 34.9481 142.995 29.9221 137.125 27.9935L145.873 16.7727H139.197L130.161 28.5195V2.57143H124.693V44.2403Z" fill="#D81D99"/>
<path d="M154.557 16.7727H149.032V31.9091C149.032 40.6169 152.945 44.9416 161.002 44.9416C165.376 44.9416 168.542 43.6558 170.844 40.6169C172.858 37.987 172.973 35.2987 172.973 31.9091V16.7727H167.448V31.7922C167.448 36.8182 165.146 39.4481 160.945 39.4481C156.801 39.4481 154.557 36.8182 154.557 31.7922V16.7727Z" fill="#D81D99"/>
<path d="M176.382 21.6234H179.144V31.9091C179.144 39.7403 183.346 44.1234 191 44.2403V38.6299C186.281 38.1623 184.554 35.6494 184.554 30.2727V21.6234H190.655V16.7727H184.554V10.2857H179.144V16.7727H176.382V21.6234Z" fill="#D81D99"/>
</svg>
